<svg width="247" height="76" viewBox="0 0 247 76" fill="none" xmlns="http://www.w3.org/2000/svg">
<rect width="247" height="76" rx="10" fill="white"/>
<path d="M16 49.68H40V25.68H16V49.68Z" fill="white"/>
<path d="M50.624 29.36V34H49.152V22.544H53.056C54.048 22.544 54.8907 22.8747 55.584 23.536C56.288 24.1973 56.64 25.0027 56.64 25.952C56.64 26.9227 56.288 27.7333 55.584 28.384C54.9013 29.0347 54.0587 29.36 53.056 29.36H50.624ZM50.624 23.952V27.952H53.088C53.6747 27.952 54.16 27.7547 54.544 27.36C54.9387 26.9653 55.136 26.496 55.136 25.952C55.136 25.4187 54.9387 24.9547 54.544 24.56C54.16 24.1547 53.6747 23.952 53.088 23.952H50.624ZM58.6868 31.6C58.6868 31.984 58.8468 32.304 59.1668 32.56C59.4974 32.816 59.8814 32.944 60.3188 32.944C60.9374 32.944 61.4868 32.7147 61.9668 32.256C62.4574 31.7973 62.7028 31.2587 62.7028 30.64C62.2441 30.2773 61.6041 30.096 60.7828 30.096C60.1854 30.096 59.6841 30.24 59.2788 30.528C58.8841 30.816 58.6868 31.1733 58.6868 31.6ZM60.5908 25.904C61.6788 25.904 62.5374 26.1973 63.1668 26.784C63.7961 27.36 64.1108 28.1547 64.1108 29.168V34H62.7028V32.912H62.6388C62.0308 33.808 61.2201 34.256 60.2068 34.256C59.3428 34.256 58.6174 34 58.0308 33.488C57.4548 32.976 57.1668 32.336 57.1668 31.568C57.1668 30.7573 57.4708 30.112 58.0788 29.632C58.6974 29.152 59.5188 28.912 60.5428 28.912C61.4174 28.912 62.1374 29.072 62.7028 29.392V29.056C62.7028 28.544 62.5001 28.112 62.0948 27.76C61.6894 27.3973 61.2148 27.216 60.6708 27.216C59.8494 27.216 59.1988 27.5627 58.7188 28.256L57.4228 27.44C58.1374 26.416 59.1934 25.904 60.5908 25.904ZM72.6228 26.16L67.7108 37.456H66.1908L68.0148 33.504L64.7828 26.16H66.3828L68.7188 31.792H68.7508L71.0228 26.16H72.6228ZM75.0555 34H73.5835V26.16H74.9915V27.248H75.0555C75.2795 26.864 75.6208 26.544 76.0795 26.288C76.5488 26.032 77.0128 25.904 77.4715 25.904C78.0475 25.904 78.5542 26.0373 78.9915 26.304C79.4288 26.5707 79.7488 26.9387 79.9515 27.408C80.6022 26.4053 81.5035 25.904 82.6555 25.904C83.5622 25.904 84.2608 26.1813 84.7515 26.736C85.2422 27.2907 85.4875 28.08 85.4875 29.104V34H84.0155V29.328C84.0155 28.592 83.8822 28.064 83.6155 27.744C83.3488 27.4133 82.9008 27.248 82.2715 27.248C81.7062 27.248 81.2315 27.488 80.8475 27.968C80.4635 28.448 80.2715 29.0133 80.2715 29.664V34H78.7995V29.328C78.7995 28.592 78.6662 28.064 78.3995 27.744C78.1328 27.4133 77.6848 27.248 77.0555 27.248C76.4902 27.248 76.0155 27.488 75.6315 27.968C75.2475 28.448 75.0555 29.0133 75.0555 29.664V34ZM90.7285 34.256C89.5765 34.256 88.6272 33.8613 87.8805 33.072C87.1338 32.2827 86.7605 31.2853 86.7605 30.08C86.7605 28.8853 87.1232 27.8933 87.8485 27.104C88.5738 26.304 89.5018 25.904 90.6325 25.904C91.7952 25.904 92.7178 26.2827 93.4005 27.04C94.0938 27.7867 94.4405 28.8373 94.4405 30.192L94.4245 30.352H88.2645C88.2858 31.12 88.5418 31.7387 89.0325 32.208C89.5232 32.6773 90.1098 32.912 90.7925 32.912C91.7312 32.912 92.4672 32.4427 93.0005 31.504L94.3125 32.144C93.9605 32.8053 93.4698 33.3227 92.8405 33.696C92.2218 34.0693 91.5178 34.256 90.7285 34.256ZM88.3765 29.136H92.8725C92.8298 28.592 92.6058 28.144 92.2005 27.792C91.8058 27.4293 91.2725 27.248 90.6005 27.248C90.0458 27.248 89.5658 27.4187 89.1605 27.76C88.7658 28.1013 88.5045 28.56 88.3765 29.136ZM95.7866 26.16H97.1946V27.248H97.2586C97.4826 26.864 97.824 26.544 98.2826 26.288C98.752 26.032 99.2373 25.904 99.7386 25.904C100.699 25.904 101.435 26.1813 101.947 26.736C102.469 27.28 102.731 28.0587 102.731 29.072V34H101.259V29.168C101.227 27.888 100.581 27.248 99.3226 27.248C98.736 27.248 98.2453 27.488 97.8506 27.968C97.456 28.4373 97.2586 29.0027 97.2586 29.664V34H95.7866V26.16ZM107.156 34.128C106.516 34.128 105.983 33.9307 105.556 33.536C105.14 33.1413 104.927 32.592 104.916 31.888V27.504H103.54V26.16H104.916V23.76H106.388V26.16H108.308V27.504H106.388V31.408C106.388 31.9307 106.49 32.288 106.692 32.48C106.895 32.6613 107.124 32.752 107.38 32.752C107.498 32.752 107.61 32.7413 107.716 32.72C107.834 32.688 107.94 32.6507 108.036 32.608L108.5 33.92C108.116 34.0587 107.668 34.128 107.156 34.128ZM116.808 34.256C115.645 34.256 114.68 33.8613 113.912 33.072C113.155 32.2613 112.776 31.264 112.776 30.08C112.776 28.8747 113.155 27.8773 113.912 27.088C114.68 26.2987 115.645 25.904 116.808 25.904C117.608 25.904 118.307 26.1067 118.904 26.512C119.501 26.9067 119.949 27.456 120.248 28.16L118.904 28.72C118.488 27.7387 117.757 27.248 116.712 27.248C116.04 27.248 115.459 27.52 114.968 28.064C114.488 28.608 114.248 29.28 114.248 30.08C114.248 30.88 114.488 31.552 114.968 32.096C115.459 32.64 116.04 32.912 116.712 32.912C117.789 32.912 118.547 32.4213 118.984 31.44L120.296 32C120.008 32.704 119.555 33.2587 118.936 33.664C118.328 34.0587 117.619 34.256 116.808 34.256ZM121.057 30.08C121.057 28.8747 121.436 27.8773 122.193 27.088C122.961 26.2987 123.927 25.904 125.089 25.904C126.252 25.904 127.212 26.2987 127.969 27.088C128.737 27.8773 129.121 28.8747 129.121 30.08C129.121 31.296 128.737 32.2933 127.969 33.072C127.212 33.8613 126.252 34.256 125.089 34.256C123.927 34.256 122.961 33.8613 122.193 33.072C121.436 32.2827 121.057 31.2853 121.057 30.08ZM122.529 30.08C122.529 30.9227 122.775 31.6053 123.265 32.128C123.756 32.6507 124.364 32.912 125.089 32.912C125.815 32.912 126.423 32.6507 126.913 32.128C127.404 31.6053 127.649 30.9227 127.649 30.08C127.649 29.248 127.404 28.5707 126.913 28.048C126.412 27.5147 125.804 27.248 125.089 27.248C124.375 27.248 123.767 27.5147 123.265 28.048C122.775 28.5707 122.529 29.248 122.529 30.08ZM131.774 34H130.302V26.16H131.71V27.248H131.774C131.998 26.864 132.34 26.544 132.798 26.288C133.268 26.032 133.732 25.904 134.19 25.904C134.766 25.904 135.273 26.0373 135.71 26.304C136.148 26.5707 136.468 26.9387 136.67 27.408C137.321 26.4053 138.222 25.904 139.374 25.904C140.281 25.904 140.98 26.1813 141.47 26.736C141.961 27.2907 142.206 28.08 142.206 29.104V34H140.734V29.328C140.734 28.592 140.601 28.064 140.334 27.744C140.068 27.4133 139.62 27.248 138.99 27.248C138.425 27.248 137.95 27.488 137.566 27.968C137.182 28.448 136.99 29.0133 136.99 29.664V34H135.518V29.328C135.518 28.592 135.385 28.064 135.118 27.744C134.852 27.4133 134.404 27.248 133.774 27.248C133.209 27.248 132.734 27.488 132.35 27.968C131.966 28.448 131.774 29.0133 131.774 29.664V34ZM147.767 32.912C148.471 32.912 149.063 32.6453 149.543 32.112C150.023 31.5893 150.263 30.912 150.263 30.08C150.263 29.2587 150.023 28.5813 149.543 28.048C149.063 27.5147 148.471 27.248 147.767 27.248C147.053 27.248 146.455 27.5147 145.975 28.048C145.506 28.5813 145.271 29.2587 145.271 30.08C145.271 30.912 145.506 31.5947 145.975 32.128C146.455 32.6507 147.053 32.912 147.767 32.912ZM148.007 34.256C147.431 34.256 146.903 34.1333 146.423 33.888C145.954 33.6427 145.591 33.3173 145.335 32.912H145.271L145.335 34V37.456H143.863V26.16H145.271V27.248H145.335C145.591 26.8427 145.954 26.5173 146.423 26.272C146.903 26.0267 147.431 25.904 148.007 25.904C149.042 25.904 149.917 26.3093 150.631 27.12C151.367 27.9413 151.735 28.928 151.735 30.08C151.735 31.2427 151.367 32.2293 150.631 33.04C149.917 33.8507 149.042 34.256 148.007 34.256ZM154.399 22.544V34H152.927V22.544H154.399ZM159.635 34.256C158.483 34.256 157.533 33.8613 156.787 33.072C156.04 32.2827 155.667 31.2853 155.667 30.08C155.667 28.8853 156.029 27.8933 156.755 27.104C157.48 26.304 158.408 25.904 159.539 25.904C160.701 25.904 161.624 26.2827 162.307 27.04C163 27.7867 163.347 28.8373 163.347 30.192L163.331 30.352H157.171C157.192 31.12 157.448 31.7387 157.939 32.208C158.429 32.6773 159.016 32.912 159.699 32.912C160.637 32.912 161.373 32.4427 161.907 31.504L163.219 32.144C162.867 32.8053 162.376 33.3227 161.747 33.696C161.128 34.0693 160.424 34.256 159.635 34.256ZM157.283 29.136H161.779C161.736 28.592 161.512 28.144 161.107 27.792C160.712 27.4293 160.179 27.248 159.507 27.248C158.952 27.248 158.472 27.4187 158.067 27.76C157.672 28.1013 157.411 28.56 157.283 29.136ZM167.562 34.128C166.923 34.128 166.389 33.9307 165.963 33.536C165.547 33.1413 165.333 32.592 165.323 31.888V27.504H163.947V26.16H165.323V23.76H166.795V26.16H168.715V27.504H166.795V31.408C166.795 31.9307 166.896 32.288 167.099 32.48C167.301 32.6613 167.531 32.752 167.786 32.752C167.904 32.752 168.016 32.7413 168.123 32.72C168.24 32.688 168.347 32.6507 168.443 32.608L168.907 33.92C168.523 34.0587 168.075 34.128 167.562 34.128ZM173.557 34.256C172.405 34.256 171.455 33.8613 170.709 33.072C169.962 32.2827 169.589 31.2853 169.589 30.08C169.589 28.8853 169.951 27.8933 170.677 27.104C171.402 26.304 172.33 25.904 173.461 25.904C174.623 25.904 175.546 26.2827 176.229 27.04C176.922 27.7867 177.269 28.8373 177.269 30.192L177.253 30.352H171.093C171.114 31.12 171.37 31.7387 171.861 32.208C172.351 32.6773 172.938 32.912 173.621 32.912C174.559 32.912 175.295 32.4427 175.829 31.504L177.141 32.144C176.789 32.8053 176.298 33.3227 175.669 33.696C175.05 34.0693 174.346 34.256 173.557 34.256ZM171.205 29.136H175.701C175.658 28.592 175.434 28.144 175.029 27.792C174.634 27.4293 174.101 27.248 173.429 27.248C172.874 27.248 172.394 27.4187 171.989 27.76C171.594 28.1013 171.333 28.56 171.205 29.136Z" fill="#0B0B0B"/>
<path d="M49.968 52.52V56H48.864V47.408H51.792C52.536 47.408 53.168 47.656 53.688 48.152C54.216 48.648 54.48 49.252 54.48 49.964C54.48 50.692 54.216 51.3 53.688 51.788C53.176 52.276 52.544 52.52 51.792 52.52H49.968ZM49.968 48.464V51.464H51.816C52.256 51.464 52.62 51.316 52.908 51.02C53.204 50.724 53.352 50.372 53.352 49.964C53.352 49.564 53.204 49.216 52.908 48.92C52.62 48.616 52.256 48.464 51.816 48.464H49.968ZM56.5494 56H55.4454V50.12H56.5014V51.08H56.5494C56.6614 50.768 56.8894 50.504 57.2334 50.288C57.5854 50.064 57.9294 49.952 58.2654 49.952C58.5854 49.952 58.8574 50 59.0814 50.096L58.7454 51.164C58.6094 51.108 58.3934 51.08 58.0974 51.08C57.6814 51.08 57.3174 51.248 57.0054 51.584C56.7014 51.92 56.5494 52.312 56.5494 52.76V56ZM59.1055 53.06C59.1055 52.156 59.3895 51.408 59.9575 50.816C60.5335 50.224 61.2575 49.928 62.1295 49.928C63.0015 49.928 63.7215 50.224 64.2895 50.816C64.8655 51.408 65.1535 52.156 65.1535 53.06C65.1535 53.972 64.8655 54.72 64.2895 55.304C63.7215 55.896 63.0015 56.192 62.1295 56.192C61.2575 56.192 60.5335 55.896 59.9575 55.304C59.3895 54.712 59.1055 53.964 59.1055 53.06ZM60.2095 53.06C60.2095 53.692 60.3935 54.204 60.7615 54.596C61.1295 54.988 61.5855 55.184 62.1295 55.184C62.6735 55.184 63.1295 54.988 63.4975 54.596C63.8655 54.204 64.0495 53.692 64.0495 53.06C64.0495 52.436 63.8655 51.928 63.4975 51.536C63.1215 51.136 62.6655 50.936 62.1295 50.936C61.5935 50.936 61.1375 51.136 60.7615 51.536C60.3935 51.928 60.2095 52.436 60.2095 53.06ZM68.8444 56.192C67.9724 56.192 67.2484 55.896 66.6724 55.304C66.1044 54.696 65.8204 53.948 65.8204 53.06C65.8204 52.156 66.1044 51.408 66.6724 50.816C67.2484 50.224 67.9724 49.928 68.8444 49.928C69.4444 49.928 69.9684 50.08 70.4164 50.384C70.8644 50.68 71.2004 51.092 71.4244 51.62L70.4164 52.04C70.1044 51.304 69.5564 50.936 68.7724 50.936C68.2684 50.936 67.8324 51.14 67.4644 51.548C67.1044 51.956 66.9244 52.46 66.9244 53.06C66.9244 53.66 67.1044 54.164 67.4644 54.572C67.8324 54.98 68.2684 55.184 68.7724 55.184C69.5804 55.184 70.1484 54.816 70.4764 54.08L71.4604 54.5C71.2444 55.028 70.9044 55.444 70.4404 55.748C69.9844 56.044 69.4524 56.192 68.8444 56.192ZM75.0073 56.192C74.1433 56.192 73.4313 55.896 72.8713 55.304C72.3113 54.712 72.0313 53.964 72.0313 53.06C72.0313 52.164 72.3033 51.42 72.8473 50.828C73.3913 50.228 74.0873 49.928 74.9353 49.928C75.8073 49.928 76.4993 50.212 77.0113 50.78C77.5313 51.34 77.7913 52.128 77.7913 53.144L77.7793 53.264H73.1593C73.1753 53.84 73.3673 54.304 73.7353 54.656C74.1033 55.008 74.5433 55.184 75.0553 55.184C75.7593 55.184 76.3113 54.832 76.7113 54.128L77.6953 54.608C77.4313 55.104 77.0633 55.492 76.5913 55.772C76.1273 56.052 75.5993 56.192 75.0073 56.192ZM73.2433 52.352H76.6153C76.5833 51.944 76.4153 51.608 76.1113 51.344C75.8153 51.072 75.4153 50.936 74.9113 50.936C74.4953 50.936 74.1353 51.064 73.8313 51.32C73.5353 51.576 73.3393 51.92 73.2433 52.352ZM83.3595 54.368C83.3595 54.88 83.1355 55.312 82.6875 55.664C82.2395 56.016 81.6755 56.192 80.9955 56.192C80.4035 56.192 79.8835 56.04 79.4355 55.736C78.9875 55.424 78.6675 55.016 78.4755 54.512L79.4595 54.092C79.6035 54.444 79.8115 54.72 80.0835 54.92C80.3635 55.112 80.6675 55.208 80.9955 55.208C81.3475 55.208 81.6395 55.132 81.8715 54.98C82.1115 54.828 82.2315 54.648 82.2315 54.44C82.2315 54.064 81.9435 53.788 81.3675 53.612L80.3595 53.36C79.2155 53.072 78.6435 52.52 78.6435 51.704C78.6435 51.168 78.8595 50.74 79.2915 50.42C79.7315 50.092 80.2915 49.928 80.9715 49.928C81.4915 49.928 81.9595 50.052 82.3755 50.3C82.7995 50.548 83.0955 50.88 83.2635 51.296L82.2795 51.704C82.1675 51.456 81.9835 51.264 81.7275 51.128C81.4795 50.984 81.1995 50.912 80.8875 50.912C80.5995 50.912 80.3395 50.984 80.1075 51.128C79.8835 51.272 79.7715 51.448 79.7715 51.656C79.7715 51.992 80.0875 52.232 80.7195 52.376L81.6075 52.604C82.7755 52.892 83.3595 53.48 83.3595 54.368ZM88.8204 54.368C88.8204 54.88 88.5964 55.312 88.1484 55.664C87.7004 56.016 87.1364 56.192 86.4564 56.192C85.8644 56.192 85.3444 56.04 84.8964 55.736C84.4484 55.424 84.1284 55.016 83.9364 54.512L84.9204 54.092C85.0644 54.444 85.2724 54.72 85.5444 54.92C85.8244 55.112 86.1284 55.208 86.4564 55.208C86.8084 55.208 87.1004 55.132 87.3324 54.98C87.5724 54.828 87.6924 54.648 87.6924 54.44C87.6924 54.064 87.4044 53.788 86.8284 53.612L85.8204 53.36C84.6764 53.072 84.1044 52.52 84.1044 51.704C84.1044 51.168 84.3204 50.74 84.7524 50.42C85.1924 50.092 85.7524 49.928 86.4324 49.928C86.9524 49.928 87.4204 50.052 87.8364 50.3C88.2604 50.548 88.5564 50.88 88.7244 51.296L87.7404 51.704C87.6284 51.456 87.4444 51.264 87.1884 51.128C86.9404 50.984 86.6604 50.912 86.3484 50.912C86.0604 50.912 85.8004 50.984 85.5684 51.128C85.3444 51.272 85.2324 51.448 85.2324 51.656C85.2324 51.992 85.5484 52.232 86.1804 52.376L87.0684 52.604C88.2364 52.892 88.8204 53.48 88.8204 54.368ZM92.48 56.192C91.616 56.192 90.904 55.896 90.344 55.304C89.784 54.712 89.504 53.964 89.504 53.06C89.504 52.164 89.776 51.42 90.32 50.828C90.864 50.228 91.56 49.928 92.408 49.928C93.28 49.928 93.972 50.212 94.484 50.78C95.004 51.34 95.264 52.128 95.264 53.144L95.252 53.264H90.632C90.648 53.84 90.84 54.304 91.208 54.656C91.576 55.008 92.016 55.184 92.528 55.184C93.232 55.184 93.784 54.832 94.184 54.128L95.168 54.608C94.904 55.104 94.536 55.492 94.064 55.772C93.6 56.052 93.072 56.192 92.48 56.192ZM90.716 52.352H94.088C94.056 51.944 93.888 51.608 93.584 51.344C93.288 51.072 92.888 50.936 92.384 50.936C91.968 50.936 91.608 51.064 91.304 51.32C91.008 51.576 90.812 51.92 90.716 52.352ZM98.9722 55.184C99.5162 55.184 99.9602 54.988 100.304 54.596C100.664 54.204 100.844 53.692 100.844 53.06C100.844 52.444 100.664 51.936 100.304 51.536C99.9522 51.136 99.5082 50.936 98.9722 50.936C98.4442 50.936 98.0002 51.136 97.6402 51.536C97.2802 51.936 97.1002 52.444 97.1002 53.06C97.1002 53.684 97.2802 54.192 97.6402 54.584C98.0002 54.984 98.4442 55.184 98.9722 55.184ZM98.7922 56.192C98.0242 56.192 97.3642 55.888 96.8122 55.28C96.2682 54.664 95.9962 53.924 95.9962 53.06C95.9962 52.196 96.2682 51.456 96.8122 50.84C97.3642 50.232 98.0242 49.928 98.7922 49.928C99.2242 49.928 99.6162 50.02 99.9682 50.204C100.328 50.388 100.604 50.632 100.796 50.936H100.844L100.796 50.12V47.408H101.9V56H100.844V55.184H100.796C100.604 55.488 100.328 55.732 99.9682 55.916C99.6162 56.1 99.2242 56.192 98.7922 56.192Z" fill="#969696"/>
</svg>
