<svg width="188" height="76" viewBox="0 0 188 76" fill="none" xmlns="http://www.w3.org/2000/svg">
<rect x="0.5" y="0.5" width="187" height="75" rx="9.5" fill="white" fill-opacity="0.4"/>
<rect x="0.5" y="0.5" width="187" height="75" rx="9.5" stroke="white"/>
<path d="M16 49.68H40V25.68H16V49.68Z" fill="white"/>
<path d="M50.624 34H49.152V22.544H50.944L56.512 31.456H56.576L56.512 29.248V22.544H57.984V34H56.448L50.624 24.656H50.56L50.624 26.864V34ZM71.1604 28.736C71.1604 30.336 70.6857 31.6107 69.7364 32.56C68.6697 33.6907 67.267 34.256 65.5284 34.256C63.8644 34.256 62.4564 33.68 61.3044 32.528C60.1524 31.376 59.5764 29.9573 59.5764 28.272C59.5764 26.5867 60.1524 25.168 61.3044 24.016C62.4564 22.864 63.8644 22.288 65.5284 22.288C66.371 22.288 67.1657 22.4373 67.9124 22.736C68.659 23.0347 69.2724 23.456 69.7524 24L68.6964 25.056C68.3444 24.6293 67.8857 24.2987 67.3204 24.064C66.7657 23.8187 66.1684 23.696 65.5284 23.696C64.2804 23.696 63.2244 24.128 62.3604 24.992C61.507 25.8667 61.0804 26.96 61.0804 28.272C61.0804 29.584 61.507 30.6773 62.3604 31.552C63.2244 32.416 64.2804 32.848 65.5284 32.848C66.6697 32.848 67.619 32.528 68.3764 31.888C69.1337 31.248 69.571 30.368 69.6884 29.248H65.5284V27.872H71.0804C71.1337 28.1707 71.1604 28.4587 71.1604 28.736ZM74.4209 34H72.9489V22.544H74.7409L80.3089 31.456H80.3729L80.3089 29.248V22.544H81.7809V34H80.2449L74.4209 24.656H74.3569L74.4209 26.864V34ZM90.7935 30.896C90.7935 31.856 90.4362 32.656 89.7215 33.296C89.0175 33.936 88.1428 34.256 87.0975 34.256C86.2762 34.256 85.5348 34.0107 84.8735 33.52C84.2015 33.008 83.7482 32.3413 83.5135 31.52L84.8575 30.96C85.0282 31.568 85.3055 32.0373 85.6895 32.368C86.0842 32.688 86.5535 32.848 87.0975 32.848C87.6948 32.848 88.2122 32.6613 88.6495 32.288C89.0762 31.904 89.2895 31.44 89.2895 30.896C89.2895 30.352 89.0655 29.8933 88.6175 29.52C88.1802 29.1467 87.6522 28.96 87.0335 28.96H86.0895V27.584H86.9215C87.5082 27.584 87.9882 27.424 88.3615 27.104C88.7348 26.7733 88.9215 26.3467 88.9215 25.824C88.9215 25.344 88.7455 24.9547 88.3935 24.656C88.0415 24.3573 87.5775 24.208 87.0015 24.208C86.0735 24.208 85.4388 24.6827 85.0975 25.632L83.7375 25.056C83.9828 24.384 84.3935 23.84 84.9695 23.424C85.5455 23.008 86.2228 22.8 87.0015 22.8C87.9722 22.8 88.7882 23.088 89.4495 23.664C90.1002 24.2187 90.4255 24.9387 90.4255 25.824C90.4255 26.88 89.9348 27.664 88.9535 28.176V28.24C89.5295 28.4853 89.9775 28.8427 90.2975 29.312C90.6282 29.7813 90.7935 30.3093 90.7935 30.896ZM92.1415 28.528C92.1415 26.864 92.5522 25.4933 93.3735 24.416C94.1948 23.3387 95.2508 22.8 96.5415 22.8C97.8322 22.8 98.8882 23.344 99.7095 24.432C100.531 25.5093 100.942 26.8747 100.942 28.528C100.942 30.1707 100.531 31.5413 99.7095 32.64C98.8882 33.7173 97.8322 34.256 96.5415 34.256C95.2508 34.256 94.1948 33.7173 93.3735 32.64C92.5522 31.5413 92.1415 30.1707 92.1415 28.528ZM99.4375 28.528C99.4375 27.2693 99.1708 26.2347 98.6375 25.424C98.1148 24.6133 97.4162 24.208 96.5415 24.208C95.6668 24.208 94.9682 24.6133 94.4455 25.424C93.9122 26.2347 93.6455 27.2693 93.6455 28.528C93.6455 29.7867 93.9122 30.8267 94.4455 31.648C94.9682 32.448 95.6668 32.848 96.5415 32.848C97.4162 32.848 98.1148 32.4427 98.6375 31.632C99.1708 30.8107 99.4375 29.776 99.4375 28.528ZM102.345 28.528C102.345 26.864 102.755 25.4933 103.577 24.416C104.398 23.3387 105.454 22.8 106.745 22.8C108.035 22.8 109.091 23.344 109.913 24.432C110.734 25.5093 111.145 26.8747 111.145 28.528C111.145 30.1707 110.734 31.5413 109.913 32.64C109.091 33.7173 108.035 34.256 106.745 34.256C105.454 34.256 104.398 33.7173 103.577 32.64C102.755 31.5413 102.345 30.1707 102.345 28.528ZM109.641 28.528C109.641 27.2693 109.374 26.2347 108.841 25.424C108.318 24.6133 107.619 24.208 106.745 24.208C105.87 24.208 105.171 24.6133 104.649 25.424C104.115 26.2347 103.849 27.2693 103.849 28.528C103.849 29.7867 104.115 30.8267 104.649 31.648C105.171 32.448 105.87 32.848 106.745 32.848C107.619 32.848 108.318 32.4427 108.841 31.632C109.374 30.8107 109.641 29.776 109.641 28.528ZM113.236 35.792L112.548 35.344L113.412 34C113.188 33.9573 112.996 33.8453 112.836 33.664C112.686 33.4827 112.612 33.264 112.612 33.008C112.612 32.6987 112.718 32.4427 112.932 32.24C113.145 32.0267 113.401 31.92 113.7 31.92C114.009 31.92 114.265 32.0267 114.468 32.24C114.681 32.4427 114.788 32.6987 114.788 33.008C114.788 33.296 114.681 33.6107 114.468 33.952L113.236 35.792ZM116.267 28.528C116.267 26.864 116.677 25.4933 117.499 24.416C118.32 23.3387 119.376 22.8 120.667 22.8C121.957 22.8 123.013 23.344 123.835 24.432C124.656 25.5093 125.067 26.8747 125.067 28.528C125.067 30.1707 124.656 31.5413 123.835 32.64C123.013 33.7173 121.957 34.256 120.667 34.256C119.376 34.256 118.32 33.7173 117.499 32.64C116.677 31.5413 116.267 30.1707 116.267 28.528ZM123.562 28.528C123.562 27.2693 123.296 26.2347 122.763 25.424C122.24 24.6133 121.541 24.208 120.667 24.208C119.792 24.208 119.093 24.6133 118.571 25.424C118.037 26.2347 117.771 27.2693 117.771 28.528C117.771 29.7867 118.037 30.8267 118.571 31.648C119.093 32.448 119.792 32.848 120.667 32.848C121.541 32.848 122.24 32.4427 122.763 31.632C123.296 30.8107 123.562 29.776 123.562 28.528ZM126.47 28.528C126.47 26.864 126.88 25.4933 127.702 24.416C128.523 23.3387 129.579 22.8 130.87 22.8C132.16 22.8 133.216 23.344 134.038 24.432C134.859 25.5093 135.27 26.8747 135.27 28.528C135.27 30.1707 134.859 31.5413 134.038 32.64C133.216 33.7173 132.16 34.256 130.87 34.256C129.579 34.256 128.523 33.7173 127.702 32.64C126.88 31.5413 126.47 30.1707 126.47 28.528ZM133.766 28.528C133.766 27.2693 133.499 26.2347 132.966 25.424C132.443 24.6133 131.744 24.208 130.87 24.208C129.995 24.208 129.296 24.6133 128.774 25.424C128.24 26.2347 127.974 27.2693 127.974 28.528C127.974 29.7867 128.24 30.8267 128.774 31.648C129.296 32.448 129.995 32.848 130.87 32.848C131.744 32.848 132.443 32.4427 132.966 31.632C133.499 30.8107 133.766 29.776 133.766 28.528ZM136.673 28.528C136.673 26.864 137.083 25.4933 137.905 24.416C138.726 23.3387 139.782 22.8 141.073 22.8C142.363 22.8 143.419 23.344 144.241 24.432C145.062 25.5093 145.473 26.8747 145.473 28.528C145.473 30.1707 145.062 31.5413 144.241 32.64C143.419 33.7173 142.363 34.256 141.073 34.256C139.782 34.256 138.726 33.7173 137.905 32.64C137.083 31.5413 136.673 30.1707 136.673 28.528ZM143.969 28.528C143.969 27.2693 143.702 26.2347 143.169 25.424C142.646 24.6133 141.947 24.208 141.073 24.208C140.198 24.208 139.499 24.6133 138.977 25.424C138.443 26.2347 138.177 27.2693 138.177 28.528C138.177 29.7867 138.443 30.8267 138.977 31.648C139.499 32.448 140.198 32.848 141.073 32.848C141.947 32.848 142.646 32.4427 143.169 31.632C143.702 30.8107 143.969 29.776 143.969 28.528Z" fill="#0B0B0B"/>
<path d="M50.964 56.192C50.316 56.192 49.756 56.016 49.284 55.664C48.812 55.312 48.48 54.824 48.288 54.2L49.332 53.768C49.604 54.68 50.148 55.136 50.964 55.136C51.412 55.136 51.772 54.98 52.044 54.668C52.324 54.348 52.464 53.936 52.464 53.432V47.408H53.568V53.336C53.568 54.224 53.332 54.924 52.86 55.436C52.396 55.94 51.764 56.192 50.964 56.192ZM54.5118 53.06C54.5118 52.156 54.7958 51.408 55.3638 50.816C55.9398 50.224 56.6638 49.928 57.5358 49.928C58.4078 49.928 59.1278 50.224 59.6958 50.816C60.2718 51.408 60.5598 52.156 60.5598 53.06C60.5598 53.972 60.2718 54.72 59.6958 55.304C59.1278 55.896 58.4078 56.192 57.5358 56.192C56.6638 56.192 55.9398 55.896 55.3638 55.304C54.7958 54.712 54.5118 53.964 54.5118 53.06ZM55.6158 53.06C55.6158 53.692 55.7998 54.204 56.1678 54.596C56.5358 54.988 56.9918 55.184 57.5358 55.184C58.0798 55.184 58.5358 54.988 58.9038 54.596C59.2718 54.204 59.4558 53.692 59.4558 53.06C59.4558 52.436 59.2718 51.928 58.9038 51.536C58.5278 51.136 58.0718 50.936 57.5358 50.936C56.9998 50.936 56.5438 51.136 56.1678 51.536C55.7998 51.928 55.6158 52.436 55.6158 53.06ZM66.5843 50.12L62.9003 58.592H61.7603L63.1283 55.628L60.7043 50.12H61.9043L63.6562 54.344H63.6803L65.3843 50.12H66.5843ZM71.2375 52.52V56H70.1335V47.408H73.0615C73.8055 47.408 74.4375 47.656 74.9575 48.152C75.4855 48.648 75.7495 49.252 75.7495 49.964C75.7495 50.692 75.4855 51.3 74.9575 51.788C74.4455 52.276 73.8135 52.52 73.0615 52.52H71.2375ZM71.2375 48.464V51.464H73.0855C73.5255 51.464 73.8895 51.316 74.1775 51.02C74.4735 50.724 74.6215 50.372 74.6215 49.964C74.6215 49.564 74.4735 49.216 74.1775 48.92C73.8895 48.616 73.5255 48.464 73.0855 48.464H71.2375ZM77.2846 54.2C77.2846 54.488 77.4046 54.728 77.6446 54.92C77.8926 55.112 78.1806 55.208 78.5086 55.208C78.9726 55.208 79.3846 55.036 79.7446 54.692C80.1126 54.348 80.2966 53.944 80.2966 53.48C79.9526 53.208 79.4726 53.072 78.8566 53.072C78.4086 53.072 78.0326 53.18 77.7286 53.396C77.4326 53.612 77.2846 53.88 77.2846 54.2ZM78.7126 49.928C79.5286 49.928 80.1726 50.148 80.6446 50.588C81.1166 51.02 81.3526 51.616 81.3526 52.376V56H80.2966V55.184H80.2486C79.7926 55.856 79.1846 56.192 78.4246 56.192C77.7766 56.192 77.2326 56 76.7926 55.616C76.3606 55.232 76.1446 54.752 76.1446 54.176C76.1446 53.568 76.3726 53.084 76.8286 52.724C77.2926 52.364 77.9086 52.184 78.6766 52.184C79.3326 52.184 79.8726 52.304 80.2966 52.544V52.292C80.2966 51.908 80.1446 51.584 79.8406 51.32C79.5366 51.048 79.1806 50.912 78.7726 50.912C78.1566 50.912 77.6686 51.172 77.3086 51.692L76.3366 51.08C76.8726 50.312 77.6646 49.928 78.7126 49.928ZM84.0258 48.092C84.0258 48.308 83.9498 48.492 83.7978 48.644C83.6458 48.796 83.4618 48.872 83.2458 48.872C83.0298 48.872 82.8458 48.796 82.6938 48.644C82.5418 48.492 82.4658 48.308 82.4658 48.092C82.4658 47.876 82.5418 47.692 82.6938 47.54C82.8458 47.388 83.0298 47.312 83.2458 47.312C83.4618 47.312 83.6458 47.388 83.7978 47.54C83.9498 47.692 84.0258 47.876 84.0258 48.092ZM83.7978 50.12V56H82.6938V50.12H83.7978ZM87.8159 55.184C88.3599 55.184 88.8039 54.988 89.1479 54.596C89.5079 54.204 89.6879 53.692 89.6879 53.06C89.6879 52.444 89.5079 51.936 89.1479 51.536C88.7959 51.136 88.3519 50.936 87.8159 50.936C87.2879 50.936 86.8439 51.136 86.4839 51.536C86.1239 51.936 85.9439 52.444 85.9439 53.06C85.9439 53.684 86.1239 54.192 86.4839 54.584C86.8439 54.984 87.2879 55.184 87.8159 55.184ZM87.6359 56.192C86.8679 56.192 86.2079 55.888 85.6559 55.28C85.1119 54.664 84.8399 53.924 84.8399 53.06C84.8399 52.196 85.1119 51.456 85.6559 50.84C86.2079 50.232 86.8679 49.928 87.6359 49.928C88.0679 49.928 88.4599 50.02 88.8119 50.204C89.1719 50.388 89.4479 50.632 89.6399 50.936H89.6879L89.6399 50.12V47.408H90.7439V56H89.6879V55.184H89.6399C89.4479 55.488 89.1719 55.732 88.8119 55.916C88.4599 56.1 88.0679 56.192 87.6359 56.192ZM97.2043 47.312C97.6043 47.312 97.9323 47.38 98.1883 47.516L97.8883 48.488C97.6963 48.392 97.4803 48.344 97.2403 48.344C96.9683 48.344 96.7443 48.44 96.5683 48.632C96.4003 48.816 96.3163 49.064 96.3163 49.376V50.12H97.8523V51.128H96.3163V56H95.2123V51.128H94.1083V50.12H95.2123V49.268C95.2123 48.684 95.3963 48.212 95.7643 47.852C96.1403 47.492 96.6203 47.312 97.2043 47.312ZM98.211 53.06C98.211 52.156 98.495 51.408 99.063 50.816C99.639 50.224 100.363 49.928 101.235 49.928C102.107 49.928 102.827 50.224 103.395 50.816C103.971 51.408 104.259 52.156 104.259 53.06C104.259 53.972 103.971 54.72 103.395 55.304C102.827 55.896 102.107 56.192 101.235 56.192C100.363 56.192 99.639 55.896 99.063 55.304C98.495 54.712 98.211 53.964 98.211 53.06ZM99.315 53.06C99.315 53.692 99.499 54.204 99.867 54.596C100.235 54.988 100.691 55.184 101.235 55.184C101.779 55.184 102.235 54.988 102.603 54.596C102.971 54.204 103.155 53.692 103.155 53.06C103.155 52.436 102.971 51.928 102.603 51.536C102.227 51.136 101.771 50.936 101.235 50.936C100.699 50.936 100.243 51.136 99.867 51.536C99.499 51.928 99.315 52.436 99.315 53.06ZM106.249 56H105.145V50.12H106.201V51.08H106.249C106.361 50.768 106.589 50.504 106.933 50.288C107.285 50.064 107.629 49.952 107.965 49.952C108.285 49.952 108.557 50 108.781 50.096L108.445 51.164C108.309 51.108 108.093 51.08 107.797 51.08C107.381 51.08 107.017 51.248 106.705 51.584C106.401 51.92 106.249 52.312 106.249 52.76V56ZM114.781 55.184C115.325 55.184 115.769 54.988 116.113 54.596C116.473 54.204 116.653 53.692 116.653 53.06C116.653 52.444 116.473 51.936 116.113 51.536C115.761 51.136 115.317 50.936 114.781 50.936C114.253 50.936 113.809 51.136 113.449 51.536C113.089 51.936 112.909 52.444 112.909 53.06C112.909 53.684 113.089 54.192 113.449 54.584C113.809 54.984 114.253 55.184 114.781 55.184ZM114.601 56.192C113.833 56.192 113.173 55.888 112.621 55.28C112.077 54.664 111.805 53.924 111.805 53.06C111.805 52.196 112.077 51.456 112.621 50.84C113.173 50.232 113.833 49.928 114.601 49.928C115.033 49.928 115.425 50.02 115.777 50.204C116.137 50.388 116.413 50.632 116.605 50.936H116.653L116.605 50.12V47.408H117.709V56H116.653V55.184H116.605C116.413 55.488 116.137 55.732 115.777 55.916C115.425 56.1 115.033 56.192 114.601 56.192ZM120.159 56H119.055V50.12H120.111V51.08H120.159C120.271 50.768 120.499 50.504 120.843 50.288C121.195 50.064 121.539 49.952 121.875 49.952C122.195 49.952 122.467 50 122.691 50.096L122.355 51.164C122.219 51.108 122.003 51.08 121.707 51.08C121.291 51.08 120.927 51.248 120.615 51.584C120.311 51.92 120.159 52.312 120.159 52.76V56ZM125.691 56.192C124.827 56.192 124.115 55.896 123.555 55.304C122.995 54.712 122.715 53.964 122.715 53.06C122.715 52.164 122.987 51.42 123.531 50.828C124.075 50.228 124.771 49.928 125.619 49.928C126.491 49.928 127.183 50.212 127.695 50.78C128.215 51.34 128.475 52.128 128.475 53.144L128.463 53.264H123.843C123.859 53.84 124.051 54.304 124.419 54.656C124.787 55.008 125.227 55.184 125.739 55.184C126.443 55.184 126.995 54.832 127.395 54.128L128.379 54.608C128.115 55.104 127.747 55.492 127.275 55.772C126.811 56.052 126.283 56.192 125.691 56.192ZM123.927 52.352H127.299C127.267 51.944 127.099 51.608 126.795 51.344C126.499 51.072 126.099 50.936 125.595 50.936C125.179 50.936 124.819 51.064 124.515 51.32C124.219 51.576 124.023 51.92 123.927 52.352ZM134.043 54.368C134.043 54.88 133.819 55.312 133.371 55.664C132.923 56.016 132.359 56.192 131.679 56.192C131.087 56.192 130.567 56.04 130.119 55.736C129.671 55.424 129.351 55.016 129.159 54.512L130.143 54.092C130.287 54.444 130.495 54.72 130.767 54.92C131.047 55.112 131.351 55.208 131.679 55.208C132.031 55.208 132.323 55.132 132.555 54.98C132.795 54.828 132.915 54.648 132.915 54.44C132.915 54.064 132.627 53.788 132.051 53.612L131.043 53.36C129.899 53.072 129.327 52.52 129.327 51.704C129.327 51.168 129.543 50.74 129.975 50.42C130.415 50.092 130.975 49.928 131.655 49.928C132.175 49.928 132.643 50.052 133.059 50.3C133.483 50.548 133.779 50.88 133.947 51.296L132.963 51.704C132.851 51.456 132.667 51.264 132.411 51.128C132.163 50.984 131.883 50.912 131.571 50.912C131.283 50.912 131.023 50.984 130.791 51.128C130.567 51.272 130.455 51.448 130.455 51.656C130.455 51.992 130.771 52.232 131.403 52.376L132.291 52.604C133.459 52.892 134.043 53.48 134.043 54.368ZM139.504 54.368C139.504 54.88 139.28 55.312 138.832 55.664C138.384 56.016 137.82 56.192 137.14 56.192C136.548 56.192 136.028 56.04 135.58 55.736C135.132 55.424 134.812 55.016 134.62 54.512L135.604 54.092C135.748 54.444 135.956 54.72 136.228 54.92C136.508 55.112 136.812 55.208 137.14 55.208C137.492 55.208 137.784 55.132 138.016 54.98C138.256 54.828 138.376 54.648 138.376 54.44C138.376 54.064 138.088 53.788 137.512 53.612L136.504 53.36C135.36 53.072 134.788 52.52 134.788 51.704C134.788 51.168 135.004 50.74 135.436 50.42C135.876 50.092 136.436 49.928 137.116 49.928C137.636 49.928 138.104 50.052 138.52 50.3C138.944 50.548 139.24 50.88 139.408 51.296L138.424 51.704C138.312 51.456 138.128 51.264 137.872 51.128C137.624 50.984 137.344 50.912 137.032 50.912C136.744 50.912 136.484 50.984 136.252 51.128C136.028 51.272 135.916 51.448 135.916 51.656C135.916 51.992 136.232 52.232 136.864 52.376L137.752 52.604C138.92 52.892 139.504 53.48 139.504 54.368Z" fill="#0B0B0B"/>
</svg>
